# xmcd
#
# Track frame offsets:
#	225
#	21414
#	37500
#	50507
#	64990
#
# Disc length: 1102 seconds
#
# Revision: 1
# Processed by: cddbd v1.5.2PL0 Copyright (c) Steve Scherf et al.
# Submitted via: audiograbber 1.83.01
#
DISCID=3b044b05
DTITLE=Empathy - Our Songs
DYEAR=2001
DGENRE=
TTITLE0=The Way It Used To Be
TTITLE1=You're All I'll Ever Want
TTITLE2=Seventy Degrees And Rising
TTITLE3=No More
TTITLE4=Beyond The Sun
EXTD=
EXTT0=
EXTT1=
EXTT2=
EXTT3=
EXTT4=
PLAYORDER=
